<svg xmlns="http://www.w3.org/2000/svg" viewBox="0 0 512 512" width="512" height="512">
  <defs>
    <linearGradient id="bg" x1="0%" y1="0%" x2="100%" y2="100%">
      <stop offset="0%" stop-color="#34d399"/>
      <stop offset="50%" stop-color="#67e8f9"/>
      <stop offset="100%" stop-color="#93c5fd"/>
    </linearGradient>
    <filter id="shadow" x="-10%" y="-10%" width="130%" height="130%">
      <feDropShadow dx="0" dy="2" stdDeviation="4" flood-color="#000" flood-opacity="0.10"/>
    </filter>
  </defs>

  <!-- Background rounded square -->
  <rect x="32" y="32" width="448" height="448" rx="88" ry="88" fill="url(#bg)"/>
  <rect x="32" y="32" width="448" height="448" rx="88" ry="88" fill="white" opacity="0.1"/>

  <!-- Row 1 - green tint, checked -->
  <rect x="96" y="80" width="320" height="96" rx="18" ry="18" fill="#d1fae5" opacity="0.92" filter="url(#shadow)"/>
  <circle cx="129" cy="115" r="15" fill="#374151"/>
  <path d="M5 13l4 4L19 7" fill="none" stroke="white" stroke-width="2" stroke-linecap="round" stroke-linejoin="round" transform="translate(114,100) scale(1.25)"/>
  <rect x="156" y="109" width="160" height="11" rx="5.5" fill="#065f46" opacity="0.2"/>
  <rect x="156" y="125" width="100" height="8" rx="4" fill="#065f46" opacity="0.1"/>

  <!-- Row 2 - cyan tint, checked -->
  <rect x="96" y="144" width="320" height="96" rx="18" ry="18" fill="#cffafe" opacity="0.94" filter="url(#shadow)"/>
  <circle cx="129" cy="179" r="15" fill="#374151"/>
  <path d="M5 13l4 4L19 7" fill="none" stroke="white" stroke-width="2" stroke-linecap="round" stroke-linejoin="round" transform="translate(114,164) scale(1.25)"/>
  <rect x="156" y="173" width="185" height="11" rx="5.5" fill="#164e63" opacity="0.2"/>
  <rect x="156" y="189" width="115" height="8" rx="4" fill="#164e63" opacity="0.1"/>

  <!-- Row 3 - yellow-green tint, unchecked -->
  <rect x="96" y="208" width="320" height="96" rx="18" ry="18" fill="#ecfccb" opacity="0.94" filter="url(#shadow)"/>
  <circle cx="129" cy="243" r="15" fill="white"/>
  <rect x="156" y="237" width="140" height="11" rx="5.5" fill="#365314" opacity="0.18"/>
  <rect x="156" y="253" width="85" height="8" rx="4" fill="#365314" opacity="0.09"/>

  <!-- Row 4 - blue tint, unchecked -->
  <rect x="96" y="272" width="320" height="96" rx="18" ry="18" fill="#dbeafe" opacity="0.94" filter="url(#shadow)"/>
  <circle cx="129" cy="307" r="15" fill="white"/>
  <rect x="156" y="301" width="170" height="11" rx="5.5" fill="#1e3a5f" opacity="0.18"/>
  <rect x="156" y="317" width="105" height="8" rx="4" fill="#1e3a5f" opacity="0.09"/>

  <!-- Row 5 - light green tint, unchecked -->
  <rect x="96" y="336" width="320" height="96" rx="18" ry="18" fill="#d1fae5" opacity="0.94" filter="url(#shadow)"/>
  <circle cx="129" cy="371" r="15" fill="white"/>
  <rect x="156" y="365" width="150" height="11" rx="5.5" fill="#065f46" opacity="0.18"/>
  <rect x="156" y="381" width="80" height="8" rx="4" fill="#065f46" opacity="0.09"/>
</svg>
